<svg xmlns="http://www.w3.org/2000/svg" width="10" height="9" viewBox="0 0 10 9">
  <metadata><?xpacket begin="﻿" id="W5M0MpCehiHzreSzNTczkc9d"?>
<x:xmpmeta xmlns:x="adobe:ns:meta/" x:xmptk="Adobe XMP Core 5.6-c138 79.159824, 2016/09/14-01:09:01        ">
   <rdf:RDF xmlns:rdf="http://www.w3.org/1999/02/22-rdf-syntax-ns#">
      <rdf:Description rdf:about=""/>
   </rdf:RDF>
</x:xmpmeta>





















<?xpacket end="w"?></metadata>
<defs>
    <style>
      .cls-1 {
        fill: #fff;
        fill-rule: evenodd;
      }
    </style>
  </defs>
  <path class="cls-1" d="M542.188,1207a2.524,2.524,0,0,0-1.885.82,0.016,0.016,0,0,0,0,.01h0l-0.3.39-0.3-.37h0a2.517,2.517,0,0,0-1.884-.85,2.743,2.743,0,0,0-1.989.85,2.951,2.951,0,0,0,0,4.09l3.733,3.87a0.614,0.614,0,0,0,.888,0l3.733-3.87a2.951,2.951,0,0,0,0-4.09,2.742,2.742,0,0,0-1.988-.85h0Z" transform="translate(-535 -1207)"/>
</svg>
