<svg xmlns="http://www.w3.org/2000/svg" width="12" height="7" viewBox="0 0 12 7">
  <metadata><?xpacket begin="﻿" id="W5M0MpCehiHzreSzNTczkc9d"?>
<x:xmpmeta xmlns:x="adobe:ns:meta/" x:xmptk="Adobe XMP Core 5.6-c138 79.159824, 2016/09/14-01:09:01        ">
   <rdf:RDF xmlns:rdf="http://www.w3.org/1999/02/22-rdf-syntax-ns#">
      <rdf:Description rdf:about=""/>
   </rdf:RDF>
</x:xmpmeta>
                                                                                                    
                                                                                                    
                                                                                                    
                                                                                                    
                                                                                                    
                                                                                                    
                                                                                                    
                                                                                                    
                                                                                                    
                                                                                                    
                                                                                                    
                                                                                                    
                                                                                                    
                                                                                                    
                                                                                                    
                                                                                                    
                                                                                                    
                                                                                                    
                                                                                                    
                                                                                                    
                           
<?xpacket end="w"?></metadata>
<defs>
    <style>
      .cls-1 {
        fill: #fff;
        fill-rule: evenodd;
      }
    </style>
  </defs>
  <path class="cls-1" d="M34.507,858.305L39,862.89l4.55-4.645h0A0.848,0.848,0,0,1,44.143,858a0.866,0.866,0,0,1,.857.875,0.88,0.88,0,0,1-.24.607h0l-5.143,5.25h0A0.846,0.846,0,0,1,39,865h0a0.846,0.846,0,0,1-.617-0.268h0l-5.143-5.25,0,0A0.88,0.88,0,0,1,33,858.875,0.866,0.866,0,0,1,33.857,858,0.847,0.847,0,0,1,34.507,858.305Z" transform="translate(-33 -858)"/>
</svg>
